<svg width="96" height="96" viewBox="0 0 96 96" fill="none" xmlns="http://www.w3.org/2000/svg">
<path d="M48 19C52.4183 19 56 15.4183 56 11C56 6.58172 52.4183 3 48 3C43.5817 3 40 6.58172 40 11C40 15.4183 43.5817 19 48 19Z" fill="white"/>
<path d="M69.8 52.2L64.2 28.4C64 27.6 63.6 26.8 63 26.2C60.6 24.2 57.8 22.8 54.6 21.8C52.4 21.4 50.2 21 48 21C45.8 21 43.6 21.4 41.4 22C38.2 22.8 35.4 24.4 33 26.4C32.4 27 32 27.8 31.8 28.6L26.2 52.4C26.2 52.6 26 53 26 53.4C26 55.6 27.8 57.4 30 57.4C31.8 57.4 33.4 56 33.8 54.4L38 37V93H46V57H50V93H58V36.8L62.2 54.2C62.6 55.8 64.2 57.2 66 57.2C68.2 57.2 70 55.4 70 53.2C70 52.8 69.8 52.4 69.8 52.2Z" fill="white"/>
</svg>
